<?xml version="1.0" encoding="utf-8" standalone="no"?>
<!DOCTYPE svg PUBLIC "-//W3C//DTD SVG 1.1//EN"
  "http://www.w3.org/Graphics/SVG/1.1/DTD/svg11.dtd">
<svg height="42pt" version="1.1" viewBox="0 0 277 42" width="277pt" xmlns="http://www.w3.org/2000/svg" xmlns:xlink="http://www.w3.org/1999/xlink">
 <metadata>
  <rdf:RDF xmlns:cc="http://creativecommons.org/ns#" xmlns:dc="http://purl.org/dc/elements/1.1/" xmlns:rdf="http://www.w3.org/1999/02/22-rdf-syntax-ns#">
   <cc:Work>
    <dc:type rdf:resource="http://purl.org/dc/dcmitype/StillImage"/>
    <dc:date>2021-04-13T10:45:48.978644</dc:date>
    <dc:format>image/svg+xml</dc:format>
    <dc:creator>
     <cc:Agent>
      <dc:title>Matplotlib v3.4.1, https://matplotlib.org/</dc:title>
     </cc:Agent>
    </dc:creator>
   </cc:Work>
  </rdf:RDF>
 </metadata>
 <defs>
  <style type="text/css">*{stroke-linecap:butt;stroke-linejoin:round;}</style>
 </defs>
 <g id="figure_1">
  <g id="patch_1">
   <path d="M 0 42 
L 277 42 
L 277 0 
L 0 0 
z
" style="fill:#ffffff;"/>
  </g>
  <g id="text_1">
   <!-- $ w = ( \sum_{i=1}^{n} x_{i} * W_{i}); $ w &gt; M; costo = 0  -->
   <g transform="translate(0 26)scale(0.16 -0.16)">
    <defs>
     <path d="M 3741 728 
Q 4156 1178 4250 1344 
Q 4594 1969 4931 2988 
L 4447 2984 
L 4513 3322 
L 5347 3322 
L 5281 2984 
L 5278 2984 
Q 4959 1825 4656 1266 
Q 4209 469 3719 0 
L 3241 0 
L 2900 2484 
L 1597 0 
L 1138 0 
L 734 2988 
L 359 2981 
L 425 3322 
L 1281 3322 
L 1631 728 
L 2991 3322 
L 3394 3322 
L 3741 728 
z
" id="DejaVuSerif-Italic-77" transform="scale(0.015625)"/>
     <path d="M 678 2894 
L 4684 2894 
L 4684 2394 
L 678 2394 
L 678 2894 
z
M 678 1619 
L 4684 1619 
L 4684 1119 
L 678 1119 
L 678 1619 
z
" id="DejaVuSerif-3d" transform="scale(0.015625)"/>
     <path d="M 2041 -997 
Q 1281 -656 893 83 
Q 506 822 506 1931 
Q 506 3044 893 3783 
Q 1281 4522 2041 4863 
L 2041 4556 
Q 1559 4225 1350 3623 
Q 1141 3022 1141 1931 
Q 1141 844 1350 242 
Q 1559 -359 2041 -691 
L 2041 -997 
z
" id="DejaVuSerif-28" transform="scale(0.015625)"/>
     <path d="M 450 0 
L 1031 2988 
L 481 2988 
L 544 3322 
L 1669 3322 
L 1556 2731 
Q 1781 3069 2068 3241 
Q 2356 3413 2694 3413 
Q 3244 3413 3444 3097 
Q 3563 2906 3563 2588 
Q 3563 2378 3509 2113 
L 3163 331 
L 3675 331 
L 3613 0 
L 2522 0 
L 2897 1931 
Q 2959 2253 2959 2469 
Q 2959 2659 2909 2769 
Q 2803 2994 2425 2994 
Q 2025 2994 1759 2701 
Q 1494 2409 1384 1850 
L 1025 0 
L 450 0 
z
" id="DejaVuSerif-Italic-6e" transform="scale(0.015625)"/>
     <path d="M 72 6509 
L 5206 6509 
L 5694 4897 
L 5347 4897 
L 5025 5900 
Q 4975 6050 4840 6115 
Q 4706 6181 4406 6181 
L 1356 6181 
L 4931 2506 
L 4931 2344 
L 1288 -906 
L 5197 -906 
Q 5475 -903 5554 -847 
Q 5634 -791 5684 -628 
L 6003 388 
L 6347 388 
L 5694 -1738 
L 72 -1738 
L 72 -1556 
L 4138 2047 
L 72 6272 
L 72 6509 
z
" id="DejaVuSerifDisplay-2211" transform="scale(0.015625)"/>
     <path d="M 1009 4353 
Q 1038 4497 1163 4603 
Q 1288 4709 1434 4709 
Q 1578 4709 1663 4603 
Q 1728 4522 1728 4422 
Q 1728 4388 1719 4353 
Q 1691 4206 1567 4103 
Q 1444 4000 1297 4000 
Q 1150 4000 1066 4103 
Q 1003 4181 1003 4281 
Q 1003 4316 1009 4353 
z
M 963 331 
L 1506 331 
L 1444 0 
L 325 0 
L 903 2988 
L 353 2988 
L 419 3322 
L 1544 3322 
L 963 331 
z
" id="DejaVuSerif-Italic-69" transform="scale(0.015625)"/>
     <path d="M 909 0 
L 909 331 
L 1722 331 
L 1722 4213 
L 781 3603 
L 781 4013 
L 1919 4750 
L 2350 4750 
L 2350 331 
L 3163 331 
L 3163 0 
L 909 0 
z
" id="DejaVuSerif-31" transform="scale(0.015625)"/>
     <path d="M 409 0 
L 19 0 
L 1484 1594 
L 747 2988 
L 338 2988 
L 400 3322 
L 1244 3322 
L 1934 2028 
L 3125 3322 
L 3516 3322 
L 2078 1759 
L 2838 331 
L 3272 331 
L 3209 0 
L 2338 0 
L 1631 1325 
L 409 0 
z
" id="DejaVuSerif-Italic-78" transform="scale(0.015625)"/>
     <path d="M 3097 3866 
L 1875 3297 
L 3097 2719 
L 2859 2350 
L 1772 3028 
L 1813 1838 
L 1388 1838 
L 1428 3028 
L 341 2350 
L 103 2719 
L 1325 3291 
L 103 3866 
L 341 4238 
L 1428 3559 
L 1388 4750 
L 1813 4750 
L 1772 3559 
L 2859 4238 
L 3097 3866 
z
" id="DejaVuSerif-2a" transform="scale(0.015625)"/>
     <path d="M 4425 0 
L 3913 0 
L 3581 3794 
L 1775 0 
L 1263 0 
L 881 4331 
L 419 4331 
L 484 4666 
L 2188 4666 
L 2122 4331 
L 1541 4331 
L 1844 884 
L 3641 4666 
L 4147 4666 
L 4484 844 
L 6141 4331 
L 5603 4331 
L 5669 4666 
L 7013 4666 
L 6947 4331 
L 6488 4331 
L 4425 0 
z
" id="DejaVuSerif-Italic-57" transform="scale(0.015625)"/>
     <path d="M 453 -997 
L 453 -691 
Q 934 -359 1145 242 
Q 1356 844 1356 1931 
Q 1356 3022 1145 3623 
Q 934 4225 453 4556 
L 453 4863 
Q 1216 4522 1603 3783 
Q 1991 3044 1991 1931 
Q 1991 822 1603 83 
Q 1216 -656 453 -997 
z
" id="DejaVuSerif-29" transform="scale(0.015625)"/>
     <path d="M 231 -622 
Q 525 -406 662 -114 
Q 800 178 800 594 
L 800 709 
L 1416 709 
Q 1391 175 1164 -208 
Q 938 -591 481 -872 
L 231 -622 
z
M 678 2363 
Q 678 2538 798 2658 
Q 919 2778 1094 2778 
Q 1269 2778 1389 2656 
Q 1509 2534 1509 2363 
Q 1509 2188 1389 2067 
Q 1269 1947 1094 1947 
Q 919 1947 798 2067 
Q 678 2188 678 2363 
z
" id="DejaVuSerif-3b" transform="scale(0.015625)"/>
     <path id="DejaVuSerif-Italic-20" transform="scale(0.015625)"/>
     <path d="M 678 3188 
L 678 3719 
L 4684 2266 
L 4684 1747 
L 678 294 
L 678 825 
L 3922 2003 
L 678 3188 
z
" id="DejaVuSerif-Italic-3e" transform="scale(0.015625)"/>
     <path d="M -97 0 
L -34 331 
L 559 331 
L 1338 4331 
L 709 4331 
L 775 4666 
L 2134 4666 
L 3125 1344 
L 5409 4666 
L 6684 4666 
L 6619 4331 
L 5997 4331 
L 5222 331 
L 5816 331 
L 5753 0 
L 3928 0 
L 3991 331 
L 4584 331 
L 5288 3938 
L 3053 684 
L 2613 684 
L 1647 3938 
L 944 331 
L 1538 331 
L 1475 0 
L -97 0 
z
" id="DejaVuSerif-Italic-4d" transform="scale(0.015625)"/>
     <path d="M -72 -622 
Q 263 -406 458 -114 
Q 653 178 734 594 
L 756 709 
L 1372 709 
Q 1244 175 942 -208 
Q 641 -591 128 -872 
L -72 -622 
z
M 1019 2067 
Q 922 2188 956 2363 
Q 991 2538 1134 2658 
Q 1278 2778 1453 2778 
Q 1628 2778 1723 2656 
Q 1819 2534 1788 2363 
Q 1753 2188 1609 2067 
Q 1466 1947 1291 1947 
Q 1116 1947 1019 2067 
z
" id="DejaVuSerif-Italic-3b" transform="scale(0.015625)"/>
     <path d="M 3163 997 
Q 2938 466 2536 187 
Q 2134 -91 1584 -91 
Q 859 -91 513 388 
Q 272 722 272 1203 
Q 272 1419 319 1663 
Q 475 2459 1008 2936 
Q 1541 3413 2266 3413 
Q 2581 3413 2879 3339 
Q 3178 3266 3463 3116 
L 3300 2266 
L 2966 2266 
Q 2966 2309 2966 2347 
Q 2966 2722 2803 2903 
Q 2622 3103 2213 3103 
Q 1747 3103 1439 2742 
Q 1131 2381 991 1663 
Q 928 1334 928 1078 
Q 928 778 1016 581 
Q 1181 219 1650 219 
Q 2022 219 2281 412 
Q 2541 606 2700 997 
L 3163 997 
z
" id="DejaVuSerif-Italic-63" transform="scale(0.015625)"/>
     <path d="M 1644 219 
Q 2106 219 2414 584 
Q 2722 950 2859 1663 
Q 2922 1988 2922 2241 
Q 2922 2541 2834 2738 
Q 2669 3103 2206 3103 
Q 1744 3103 1436 2739 
Q 1128 2375 991 1663 
Q 928 1338 928 1088 
Q 928 784 1019 584 
Q 1184 219 1644 219 
z
M 1584 -91 
Q 859 -91 513 388 
Q 272 722 272 1203 
Q 272 1419 319 1663 
Q 472 2456 1005 2934 
Q 1538 3413 2266 3413 
Q 2994 3413 3341 2934 
Q 3578 2603 3578 2122 
Q 3578 1906 3531 1663 
Q 3378 869 2845 389 
Q 2313 -91 1584 -91 
z
" id="DejaVuSerif-Italic-6f" transform="scale(0.015625)"/>
     <path d="M 222 959 
L 553 959 
Q 541 869 541 788 
Q 541 219 1313 219 
Q 2088 219 2200 788 
Q 2209 844 2209 944 
Q 2209 1041 2103 1158 
Q 1997 1275 1550 1428 
L 1159 1569 
Q 759 1706 629 1882 
Q 500 2059 500 2263 
Q 500 2344 516 2438 
Q 606 2894 990 3153 
Q 1375 3413 1931 3413 
Q 2484 3413 3066 3144 
L 2925 2419 
L 2594 2419 
Q 2606 2491 2606 2553 
Q 2606 2781 2448 2942 
Q 2291 3103 1925 3103 
Q 1191 3103 1091 2591 
Q 1078 2538 1078 2444 
Q 1078 2347 1179 2237 
Q 1281 2128 1678 1997 
L 2106 1856 
Q 2550 1709 2716 1488 
Q 2831 1331 2831 1178 
Q 2831 522 2306 181 
Q 1894 -91 1262 -91 
Q 631 -91 72 184 
L 222 959 
z
" id="DejaVuSerif-Italic-73" transform="scale(0.015625)"/>
     <path d="M 856 2988 
L 350 2988 
L 416 3322 
L 922 3322 
L 1122 4353 
L 1700 4353 
L 1500 3322 
L 2581 3322 
L 2516 2988 
L 1434 2988 
L 1025 878 
Q 978 631 978 488 
Q 978 388 1000 338 
Q 1059 219 1278 219 
Q 1503 219 1633 351 
Q 1763 484 1825 781 
L 2259 781 
Q 2147 328 1884 118 
Q 1622 -91 1169 -91 
Q 672 -91 506 131 
Q 406 266 406 516 
Q 406 675 447 878 
L 856 2988 
z
" id="DejaVuSerif-Italic-74" transform="scale(0.015625)"/>
     <path d="M 678 2894 
L 4684 2894 
L 4684 2394 
L 678 2394 
L 678 2894 
z
M 678 1619 
L 4684 1619 
L 4684 1119 
L 678 1119 
L 678 1619 
z
" id="DejaVuSerif-Italic-3d" transform="scale(0.015625)"/>
     <path d="M 1011 744 
Q 1147 219 1625 219 
Q 2103 219 2442 744 
Q 2781 1269 2988 2328 
Q 3194 3391 3058 3916 
Q 2922 4441 2444 4441 
Q 1966 4441 1627 3916 
Q 1288 3391 1081 2328 
Q 875 1269 1011 744 
z
M 1563 -91 
Q 803 -91 501 546 
Q 200 1184 422 2328 
Q 644 3475 1195 4112 
Q 1747 4750 2506 4750 
Q 3269 4750 3569 4112 
Q 3869 3475 3647 2328 
Q 3425 1184 2875 546 
Q 2325 -91 1563 -91 
z
" id="DejaVuSerif-Italic-30" transform="scale(0.015625)"/>
    </defs>
    <use transform="translate(0 0.217187)" xlink:href="#DejaVuSerif-Italic-77"/>
    <use transform="translate(104.560547 0.217187)" xlink:href="#DejaVuSerif-3d"/>
    <use transform="translate(207.314453 0.217187)" xlink:href="#DejaVuSerif-28"/>
    <use transform="translate(300.328125 120.670312)scale(0.7)" xlink:href="#DejaVuSerif-Italic-6e"/>
    <use transform="translate(273.328125 0.217187)" xlink:href="#DejaVuSerifDisplay-2211"/>
    <use transform="translate(246.328125 -97.642188)scale(0.7)" xlink:href="#DejaVuSerif-Italic-69"/>
    <use transform="translate(281.991211 -97.642188)scale(0.7)" xlink:href="#DejaVuSerif-3d"/>
    <use transform="translate(353.918945 -97.642188)scale(0.7)" xlink:href="#DejaVuSerif-31"/>
    <use transform="translate(398.455078 0.217187)" xlink:href="#DejaVuSerif-Italic-78"/>
    <use transform="translate(454.851562 -15.354688)scale(0.7)" xlink:href="#DejaVuSerif-Italic-69"/>
    <use transform="translate(498.799414 0.217187)" xlink:href="#DejaVuSerif-2a"/>
    <use transform="translate(567.764258 0.217187)" xlink:href="#DejaVuSerif-Italic-57"/>
    <use transform="translate(670.547461 -15.354688)scale(0.7)" xlink:href="#DejaVuSerif-Italic-69"/>
    <use transform="translate(695.530469 0.217187)" xlink:href="#DejaVuSerif-29"/>
    <use transform="translate(734.544141 0.217187)" xlink:href="#DejaVuSerif-3b"/>
    <use transform="translate(787.200391 0.217187)" xlink:href="#DejaVuSerif-Italic-20"/>
    <use transform="translate(818.9875 0.217187)" xlink:href="#DejaVuSerif-Italic-77"/>
    <use transform="translate(904.583203 0.217187)" xlink:href="#DejaVuSerif-Italic-20"/>
    <use transform="translate(936.370312 0.217187)" xlink:href="#DejaVuSerif-Italic-3e"/>
    <use transform="translate(1020.159375 0.217187)" xlink:href="#DejaVuSerif-Italic-20"/>
    <use transform="translate(1051.946484 0.217187)" xlink:href="#DejaVuSerif-Italic-4d"/>
    <use transform="translate(1154.339062 0.217187)" xlink:href="#DejaVuSerif-Italic-3b"/>
    <use transform="translate(1188.030469 0.217187)" xlink:href="#DejaVuSerif-Italic-20"/>
    <use transform="translate(1219.817578 0.217187)" xlink:href="#DejaVuSerif-Italic-63"/>
    <use transform="translate(1275.823437 0.217187)" xlink:href="#DejaVuSerif-Italic-6f"/>
    <use transform="translate(1336.028516 0.217187)" xlink:href="#DejaVuSerif-Italic-73"/>
    <use transform="translate(1387.346875 0.217187)" xlink:href="#DejaVuSerif-Italic-74"/>
    <use transform="translate(1427.532422 0.217187)" xlink:href="#DejaVuSerif-Italic-6f"/>
    <use transform="translate(1487.7375 0.217187)" xlink:href="#DejaVuSerif-Italic-20"/>
    <use transform="translate(1519.524609 0.217187)" xlink:href="#DejaVuSerif-Italic-3d"/>
    <use transform="translate(1603.313672 0.217187)" xlink:href="#DejaVuSerif-Italic-20"/>
    <use transform="translate(1635.100781 0.217187)" xlink:href="#DejaVuSerif-Italic-30"/>
    <use transform="translate(1698.723828 0.217187)" xlink:href="#DejaVuSerif-Italic-20"/>
   </g>
  </g>
 </g>
</svg>
