<?xml version="1.0" encoding="utf-8" standalone="no"?>
<!DOCTYPE svg PUBLIC "-//W3C//DTD SVG 1.1//EN"
  "http://www.w3.org/Graphics/SVG/1.1/DTD/svg11.dtd">
<svg height="45pt" version="1.1" viewBox="0 0 331 45" width="331pt" xmlns="http://www.w3.org/2000/svg" xmlns:xlink="http://www.w3.org/1999/xlink">
 <metadata>
  <rdf:RDF xmlns:cc="http://creativecommons.org/ns#" xmlns:dc="http://purl.org/dc/elements/1.1/" xmlns:rdf="http://www.w3.org/1999/02/22-rdf-syntax-ns#">
   <cc:Work>
    <dc:type rdf:resource="http://purl.org/dc/dcmitype/StillImage"/>
    <dc:date>2021-04-13T00:40:23.169781</dc:date>
    <dc:format>image/svg+xml</dc:format>
    <dc:creator>
     <cc:Agent>
      <dc:title>Matplotlib v3.4.1, https://matplotlib.org/</dc:title>
     </cc:Agent>
    </dc:creator>
   </cc:Work>
  </rdf:RDF>
 </metadata>
 <defs>
  <style type="text/css">*{stroke-linecap:butt;stroke-linejoin:round;}</style>
 </defs>
 <g id="figure_1">
  <g id="patch_1">
   <path d="M 0 45 
L 331 45 
L 331 0 
L 0 0 
z
" style="fill:#ffffff;"/>
  </g>
  <g id="text_1">
   <!-- $ ( \sum_{j=1}^{n} matrix^i_{j} * x_{j}) $  == 0; costo += 100000  -->
   <g transform="translate(0 26)scale(0.16 -0.16)">
    <defs>
     <path d="M 2041 -997 
Q 1281 -656 893 83 
Q 506 822 506 1931 
Q 506 3044 893 3783 
Q 1281 4522 2041 4863 
L 2041 4556 
Q 1559 4225 1350 3623 
Q 1141 3022 1141 1931 
Q 1141 844 1350 242 
Q 1559 -359 2041 -691 
L 2041 -997 
z
" id="DejaVuSerif-28" transform="scale(0.015625)"/>
     <path d="M 450 0 
L 1031 2988 
L 481 2988 
L 544 3322 
L 1669 3322 
L 1556 2731 
Q 1781 3069 2068 3241 
Q 2356 3413 2694 3413 
Q 3244 3413 3444 3097 
Q 3563 2906 3563 2588 
Q 3563 2378 3509 2113 
L 3163 331 
L 3675 331 
L 3613 0 
L 2522 0 
L 2897 1931 
Q 2959 2253 2959 2469 
Q 2959 2659 2909 2769 
Q 2803 2994 2425 2994 
Q 2025 2994 1759 2701 
Q 1494 2409 1384 1850 
L 1025 0 
L 450 0 
z
" id="DejaVuSerif-Italic-6e" transform="scale(0.015625)"/>
     <path d="M 72 6509 
L 5206 6509 
L 5694 4897 
L 5347 4897 
L 5025 5900 
Q 4975 6050 4840 6115 
Q 4706 6181 4406 6181 
L 1356 6181 
L 4931 2506 
L 4931 2344 
L 1288 -906 
L 5197 -906 
Q 5475 -903 5554 -847 
Q 5634 -791 5684 -628 
L 6003 388 
L 6347 388 
L 5694 -1738 
L 72 -1738 
L 72 -1556 
L 4138 2047 
L 72 6272 
L 72 6509 
z
" id="DejaVuSerifDisplay-2211" transform="scale(0.015625)"/>
     <path d="M 1172 4353 
Q 1197 4497 1323 4603 
Q 1450 4709 1597 4709 
Q 1741 4709 1825 4603 
Q 1888 4522 1888 4422 
Q 1888 4388 1881 4353 
Q 1850 4206 1729 4103 
Q 1609 4000 1459 4000 
Q 1313 4000 1225 4103 
Q 1163 4181 1163 4281 
Q 1163 4316 1172 4353 
z
M 1047 2988 
L 503 2988 
L 566 3322 
L 1684 3322 
L 978 -325 
Q 878 -838 515 -1130 
Q 153 -1422 -381 -1422 
Q -606 -1422 -800 -1370 
Q -994 -1319 -1169 -1216 
L -1034 -531 
L -738 -531 
Q -747 -609 -747 -675 
Q -747 -869 -669 -972 
Q -563 -1113 -306 -1113 
Q -22 -1113 150 -920 
Q 322 -728 403 -325 
L 1047 2988 
z
" id="DejaVuSerif-Italic-6a" transform="scale(0.015625)"/>
     <path d="M 678 2894 
L 4684 2894 
L 4684 2394 
L 678 2394 
L 678 2894 
z
M 678 1619 
L 4684 1619 
L 4684 1119 
L 678 1119 
L 678 1619 
z
" id="DejaVuSerif-3d" transform="scale(0.015625)"/>
     <path d="M 909 0 
L 909 331 
L 1722 331 
L 1722 4213 
L 781 3603 
L 781 4013 
L 1919 4750 
L 2350 4750 
L 2350 331 
L 3163 331 
L 3163 0 
L 909 0 
z
" id="DejaVuSerif-31" transform="scale(0.015625)"/>
     <path d="M 3503 2675 
Q 3741 3041 4034 3227 
Q 4328 3413 4672 3413 
Q 5194 3413 5388 3088 
Q 5503 2894 5503 2578 
Q 5503 2372 5453 2113 
L 5106 331 
L 5625 331 
L 5563 0 
L 4469 0 
L 4866 2047 
Q 4913 2291 4913 2466 
Q 4913 2659 4856 2772 
Q 4750 2988 4403 2988 
Q 4019 2988 3761 2697 
Q 3503 2406 3394 1850 
L 3034 0 
L 2459 0 
L 2863 2069 
Q 2906 2303 2906 2472 
Q 2906 2666 2850 2775 
Q 2741 2988 2394 2988 
Q 2009 2988 1751 2697 
Q 1494 2406 1384 1850 
L 1025 0 
L 450 0 
L 1031 2994 
L 481 2994 
L 544 3322 
L 1669 3322 
L 1556 2731 
Q 1778 3063 2059 3238 
Q 2341 3413 2653 3413 
Q 3041 3413 3262 3220 
Q 3484 3028 3503 2675 
z
" id="DejaVuSerif-Italic-6d" transform="scale(0.015625)"/>
     <path d="M 2325 519 
Q 1909 -91 1238 -91 
Q 688 -91 409 281 
Q 216 544 216 919 
Q 216 1078 250 1256 
Q 463 2359 1231 2928 
Q 1884 3413 2675 3413 
Q 3206 3413 3388 3322 
L 2806 331 
L 3300 331 
L 3238 0 
L 2225 0 
L 2325 519 
z
M 822 938 
Q 822 269 1469 269 
Q 1863 269 2130 583 
Q 2397 897 2516 1497 
L 2806 3003 
L 2806 3003 
Q 2806 3094 2556 3094 
Q 1956 3094 1491 2625 
Q 1028 2153 863 1297 
Q 822 1097 822 938 
z
" id="DejaVuSerif-Italic-61" transform="scale(0.015625)"/>
     <path d="M 856 2988 
L 350 2988 
L 416 3322 
L 922 3322 
L 1122 4353 
L 1700 4353 
L 1500 3322 
L 2581 3322 
L 2516 2988 
L 1434 2988 
L 1025 878 
Q 978 631 978 488 
Q 978 388 1000 338 
Q 1059 219 1278 219 
Q 1503 219 1633 351 
Q 1763 484 1825 781 
L 2259 781 
Q 2147 328 1884 118 
Q 1622 -91 1169 -91 
Q 672 -91 506 131 
Q 406 266 406 516 
Q 406 675 447 878 
L 856 2988 
z
" id="DejaVuSerif-Italic-74" transform="scale(0.015625)"/>
     <path d="M 3375 3328 
L 3213 2497 
L 2881 2497 
Q 2891 2559 2891 2613 
Q 2891 2775 2816 2866 
Q 2719 2988 2484 2988 
Q 2059 2988 1775 2694 
Q 1491 2400 1384 1850 
L 1025 0 
L 450 0 
L 1031 2994 
L 481 2994 
L 544 3322 
L 1669 3322 
L 1556 2731 
Q 1791 3078 2089 3245 
Q 2388 3413 2769 3413 
Q 2909 3413 3059 3391 
Q 3209 3369 3375 3328 
z
" id="DejaVuSerif-Italic-72" transform="scale(0.015625)"/>
     <path d="M 1009 4353 
Q 1038 4497 1163 4603 
Q 1288 4709 1434 4709 
Q 1578 4709 1663 4603 
Q 1728 4522 1728 4422 
Q 1728 4388 1719 4353 
Q 1691 4206 1567 4103 
Q 1444 4000 1297 4000 
Q 1150 4000 1066 4103 
Q 1003 4181 1003 4281 
Q 1003 4316 1009 4353 
z
M 963 331 
L 1506 331 
L 1444 0 
L 325 0 
L 903 2988 
L 353 2988 
L 419 3322 
L 1544 3322 
L 963 331 
z
" id="DejaVuSerif-Italic-69" transform="scale(0.015625)"/>
     <path d="M 409 0 
L 19 0 
L 1484 1594 
L 747 2988 
L 338 2988 
L 400 3322 
L 1244 3322 
L 1934 2028 
L 3125 3322 
L 3516 3322 
L 2078 1759 
L 2838 331 
L 3272 331 
L 3209 0 
L 2338 0 
L 1631 1325 
L 409 0 
z
" id="DejaVuSerif-Italic-78" transform="scale(0.015625)"/>
     <path d="M 3097 3866 
L 1875 3297 
L 3097 2719 
L 2859 2350 
L 1772 3028 
L 1813 1838 
L 1388 1838 
L 1428 3028 
L 341 2350 
L 103 2719 
L 1325 3291 
L 103 3866 
L 341 4238 
L 1428 3559 
L 1388 4750 
L 1813 4750 
L 1772 3559 
L 2859 4238 
L 3097 3866 
z
" id="DejaVuSerif-2a" transform="scale(0.015625)"/>
     <path d="M 453 -997 
L 453 -691 
Q 934 -359 1145 242 
Q 1356 844 1356 1931 
Q 1356 3022 1145 3623 
Q 934 4225 453 4556 
L 453 4863 
Q 1216 4522 1603 3783 
Q 1991 3044 1991 1931 
Q 1991 822 1603 83 
Q 1216 -656 453 -997 
z
" id="DejaVuSerif-29" transform="scale(0.015625)"/>
     <path id="DejaVuSerif-Italic-20" transform="scale(0.015625)"/>
     <path d="M 678 2894 
L 4684 2894 
L 4684 2394 
L 678 2394 
L 678 2894 
z
M 678 1619 
L 4684 1619 
L 4684 1119 
L 678 1119 
L 678 1619 
z
" id="DejaVuSerif-Italic-3d" transform="scale(0.015625)"/>
     <path d="M 1011 744 
Q 1147 219 1625 219 
Q 2103 219 2442 744 
Q 2781 1269 2988 2328 
Q 3194 3391 3058 3916 
Q 2922 4441 2444 4441 
Q 1966 4441 1627 3916 
Q 1288 3391 1081 2328 
Q 875 1269 1011 744 
z
M 1563 -91 
Q 803 -91 501 546 
Q 200 1184 422 2328 
Q 644 3475 1195 4112 
Q 1747 4750 2506 4750 
Q 3269 4750 3569 4112 
Q 3869 3475 3647 2328 
Q 3425 1184 2875 546 
Q 2325 -91 1563 -91 
z
" id="DejaVuSerif-Italic-30" transform="scale(0.015625)"/>
     <path d="M -72 -622 
Q 263 -406 458 -114 
Q 653 178 734 594 
L 756 709 
L 1372 709 
Q 1244 175 942 -208 
Q 641 -591 128 -872 
L -72 -622 
z
M 1019 2067 
Q 922 2188 956 2363 
Q 991 2538 1134 2658 
Q 1278 2778 1453 2778 
Q 1628 2778 1723 2656 
Q 1819 2534 1788 2363 
Q 1753 2188 1609 2067 
Q 1466 1947 1291 1947 
Q 1116 1947 1019 2067 
z
" id="DejaVuSerif-Italic-3b" transform="scale(0.015625)"/>
     <path d="M 3163 997 
Q 2938 466 2536 187 
Q 2134 -91 1584 -91 
Q 859 -91 513 388 
Q 272 722 272 1203 
Q 272 1419 319 1663 
Q 475 2459 1008 2936 
Q 1541 3413 2266 3413 
Q 2581 3413 2879 3339 
Q 3178 3266 3463 3116 
L 3300 2266 
L 2966 2266 
Q 2966 2309 2966 2347 
Q 2966 2722 2803 2903 
Q 2622 3103 2213 3103 
Q 1747 3103 1439 2742 
Q 1131 2381 991 1663 
Q 928 1334 928 1078 
Q 928 778 1016 581 
Q 1181 219 1650 219 
Q 2022 219 2281 412 
Q 2541 606 2700 997 
L 3163 997 
z
" id="DejaVuSerif-Italic-63" transform="scale(0.015625)"/>
     <path d="M 1644 219 
Q 2106 219 2414 584 
Q 2722 950 2859 1663 
Q 2922 1988 2922 2241 
Q 2922 2541 2834 2738 
Q 2669 3103 2206 3103 
Q 1744 3103 1436 2739 
Q 1128 2375 991 1663 
Q 928 1338 928 1088 
Q 928 784 1019 584 
Q 1184 219 1644 219 
z
M 1584 -91 
Q 859 -91 513 388 
Q 272 722 272 1203 
Q 272 1419 319 1663 
Q 472 2456 1005 2934 
Q 1538 3413 2266 3413 
Q 2994 3413 3341 2934 
Q 3578 2603 3578 2122 
Q 3578 1906 3531 1663 
Q 3378 869 2845 389 
Q 2313 -91 1584 -91 
z
" id="DejaVuSerif-Italic-6f" transform="scale(0.015625)"/>
     <path d="M 222 959 
L 553 959 
Q 541 869 541 788 
Q 541 219 1313 219 
Q 2088 219 2200 788 
Q 2209 844 2209 944 
Q 2209 1041 2103 1158 
Q 1997 1275 1550 1428 
L 1159 1569 
Q 759 1706 629 1882 
Q 500 2059 500 2263 
Q 500 2344 516 2438 
Q 606 2894 990 3153 
Q 1375 3413 1931 3413 
Q 2484 3413 3066 3144 
L 2925 2419 
L 2594 2419 
Q 2606 2491 2606 2553 
Q 2606 2781 2448 2942 
Q 2291 3103 1925 3103 
Q 1191 3103 1091 2591 
Q 1078 2538 1078 2444 
Q 1078 2347 1179 2237 
Q 1281 2128 1678 1997 
L 2106 1856 
Q 2550 1709 2716 1488 
Q 2831 1331 2831 1178 
Q 2831 522 2306 181 
Q 1894 -91 1262 -91 
Q 631 -91 72 184 
L 222 959 
z
" id="DejaVuSerif-Italic-73" transform="scale(0.015625)"/>
     <path d="M 2931 4013 
L 2931 2259 
L 4684 2259 
L 4684 1753 
L 2931 1753 
L 2931 0 
L 2431 0 
L 2431 1753 
L 678 1753 
L 678 2259 
L 2431 2259 
L 2431 4013 
L 2931 4013 
z
" id="DejaVuSerif-Italic-2b" transform="scale(0.015625)"/>
     <path d="M 447 0 
L 513 331 
L 1325 331 
L 2078 4213 
L 1019 3603 
L 1100 4013 
L 2381 4750 
L 2813 4750 
L 1953 331 
L 2766 331 
L 2700 0 
L 447 0 
z
" id="DejaVuSerif-Italic-31" transform="scale(0.015625)"/>
    </defs>
    <use transform="translate(0 0.217187)" xlink:href="#DejaVuSerif-28"/>
    <use transform="translate(92.013672 120.670312)scale(0.7)" xlink:href="#DejaVuSerif-Italic-6e"/>
    <use transform="translate(66.013672 0.217187)" xlink:href="#DejaVuSerifDisplay-2211"/>
    <use transform="translate(39.013672 -97.642188)scale(0.7)" xlink:href="#DejaVuSerif-Italic-6a"/>
    <use transform="translate(73.993164 -97.642188)scale(0.7)" xlink:href="#DejaVuSerif-3d"/>
    <use transform="translate(145.920898 -97.642188)scale(0.7)" xlink:href="#DejaVuSerif-31"/>
    <use transform="translate(190.457031 0.217187)" xlink:href="#DejaVuSerif-Italic-6d"/>
    <use transform="translate(285.28125 0.217187)" xlink:href="#DejaVuSerif-Italic-61"/>
    <use transform="translate(344.900391 0.217187)" xlink:href="#DejaVuSerif-Italic-74"/>
    <use transform="translate(385.085938 0.217187)" xlink:href="#DejaVuSerif-Italic-72"/>
    <use transform="translate(432.888672 0.217187)" xlink:href="#DejaVuSerif-Italic-69"/>
    <use transform="translate(464.871094 0.217187)" xlink:href="#DejaVuSerif-Italic-78"/>
    <use transform="translate(525.506589 38.26875)scale(0.7)" xlink:href="#DejaVuSerif-Italic-69"/>
    <use transform="translate(521.267578 -25.735938)scale(0.7)" xlink:href="#DejaVuSerif-Italic-6a"/>
    <use transform="translate(569.45444 0.217187)" xlink:href="#DejaVuSerif-2a"/>
    <use transform="translate(638.419284 0.217187)" xlink:href="#DejaVuSerif-Italic-78"/>
    <use transform="translate(694.815768 -15.354688)scale(0.7)" xlink:href="#DejaVuSerif-Italic-6a"/>
    <use transform="translate(719.115182 0.217187)" xlink:href="#DejaVuSerif-29"/>
    <use transform="translate(758.128854 0.217187)" xlink:href="#DejaVuSerif-Italic-20"/>
    <use transform="translate(789.915964 0.217187)" xlink:href="#DejaVuSerif-Italic-20"/>
    <use transform="translate(821.703073 0.217187)" xlink:href="#DejaVuSerif-Italic-3d"/>
    <use transform="translate(905.492135 0.217187)" xlink:href="#DejaVuSerif-Italic-3d"/>
    <use transform="translate(989.281198 0.217187)" xlink:href="#DejaVuSerif-Italic-20"/>
    <use transform="translate(1021.068307 0.217187)" xlink:href="#DejaVuSerif-Italic-30"/>
    <use transform="translate(1084.691354 0.217187)" xlink:href="#DejaVuSerif-Italic-3b"/>
    <use transform="translate(1118.38276 0.217187)" xlink:href="#DejaVuSerif-Italic-20"/>
    <use transform="translate(1150.16987 0.217187)" xlink:href="#DejaVuSerif-Italic-63"/>
    <use transform="translate(1206.175729 0.217187)" xlink:href="#DejaVuSerif-Italic-6f"/>
    <use transform="translate(1266.380807 0.217187)" xlink:href="#DejaVuSerif-Italic-73"/>
    <use transform="translate(1317.699167 0.217187)" xlink:href="#DejaVuSerif-Italic-74"/>
    <use transform="translate(1357.884714 0.217187)" xlink:href="#DejaVuSerif-Italic-6f"/>
    <use transform="translate(1418.089792 0.217187)" xlink:href="#DejaVuSerif-Italic-20"/>
    <use transform="translate(1449.876901 0.217187)" xlink:href="#DejaVuSerif-Italic-2b"/>
    <use transform="translate(1533.665964 0.217187)" xlink:href="#DejaVuSerif-Italic-3d"/>
    <use transform="translate(1617.455026 0.217187)" xlink:href="#DejaVuSerif-Italic-20"/>
    <use transform="translate(1649.242135 0.217187)" xlink:href="#DejaVuSerif-Italic-31"/>
    <use transform="translate(1712.865182 0.217187)" xlink:href="#DejaVuSerif-Italic-30"/>
    <use transform="translate(1776.488229 0.217187)" xlink:href="#DejaVuSerif-Italic-30"/>
    <use transform="translate(1840.111276 0.217187)" xlink:href="#DejaVuSerif-Italic-30"/>
    <use transform="translate(1903.734323 0.217187)" xlink:href="#DejaVuSerif-Italic-30"/>
    <use transform="translate(1967.35737 0.217187)" xlink:href="#DejaVuSerif-Italic-30"/>
    <use transform="translate(2030.980417 0.217187)" xlink:href="#DejaVuSerif-Italic-20"/>
   </g>
  </g>
 </g>
</svg>
