<?xml version="1.0" encoding="utf-8" standalone="no"?>
<!DOCTYPE svg PUBLIC "-//W3C//DTD SVG 1.1//EN"
  "http://www.w3.org/Graphics/SVG/1.1/DTD/svg11.dtd">
<svg height="45pt" version="1.1" viewBox="0 0 127 45" width="127pt" xmlns="http://www.w3.org/2000/svg" xmlns:xlink="http://www.w3.org/1999/xlink">
 <metadata>
  <rdf:RDF xmlns:cc="http://creativecommons.org/ns#" xmlns:dc="http://purl.org/dc/elements/1.1/" xmlns:rdf="http://www.w3.org/1999/02/22-rdf-syntax-ns#">
   <cc:Work>
    <dc:type rdf:resource="http://purl.org/dc/dcmitype/StillImage"/>
    <dc:date>2021-04-12T21:34:02.906651</dc:date>
    <dc:format>image/svg+xml</dc:format>
    <dc:creator>
     <cc:Agent>
      <dc:title>Matplotlib v3.4.1, https://matplotlib.org/</dc:title>
     </cc:Agent>
    </dc:creator>
   </cc:Work>
  </rdf:RDF>
 </metadata>
 <defs>
  <style type="text/css">*{stroke-linecap:butt;stroke-linejoin:round;}</style>
 </defs>
 <g id="figure_1">
  <g id="patch_1">
   <path d="M 0 45 
L 127 45 
L 127 0 
L 0 0 
z
" style="fill:#ffffff;"/>
  </g>
  <g id="text_1">
   <!-- $ costo = \sum_{j=1}^{n} x_{j} * c_{j} $ -->
   <g transform="translate(0 26)scale(0.16 -0.16)">
    <defs>
     <path d="M 3163 997 
Q 2938 466 2536 187 
Q 2134 -91 1584 -91 
Q 859 -91 513 388 
Q 272 722 272 1203 
Q 272 1419 319 1663 
Q 475 2459 1008 2936 
Q 1541 3413 2266 3413 
Q 2581 3413 2879 3339 
Q 3178 3266 3463 3116 
L 3300 2266 
L 2966 2266 
Q 2966 2309 2966 2347 
Q 2966 2722 2803 2903 
Q 2622 3103 2213 3103 
Q 1747 3103 1439 2742 
Q 1131 2381 991 1663 
Q 928 1334 928 1078 
Q 928 778 1016 581 
Q 1181 219 1650 219 
Q 2022 219 2281 412 
Q 2541 606 2700 997 
L 3163 997 
z
" id="DejaVuSerif-Italic-63" transform="scale(0.015625)"/>
     <path d="M 1644 219 
Q 2106 219 2414 584 
Q 2722 950 2859 1663 
Q 2922 1988 2922 2241 
Q 2922 2541 2834 2738 
Q 2669 3103 2206 3103 
Q 1744 3103 1436 2739 
Q 1128 2375 991 1663 
Q 928 1338 928 1088 
Q 928 784 1019 584 
Q 1184 219 1644 219 
z
M 1584 -91 
Q 859 -91 513 388 
Q 272 722 272 1203 
Q 272 1419 319 1663 
Q 472 2456 1005 2934 
Q 1538 3413 2266 3413 
Q 2994 3413 3341 2934 
Q 3578 2603 3578 2122 
Q 3578 1906 3531 1663 
Q 3378 869 2845 389 
Q 2313 -91 1584 -91 
z
" id="DejaVuSerif-Italic-6f" transform="scale(0.015625)"/>
     <path d="M 222 959 
L 553 959 
Q 541 869 541 788 
Q 541 219 1313 219 
Q 2088 219 2200 788 
Q 2209 844 2209 944 
Q 2209 1041 2103 1158 
Q 1997 1275 1550 1428 
L 1159 1569 
Q 759 1706 629 1882 
Q 500 2059 500 2263 
Q 500 2344 516 2438 
Q 606 2894 990 3153 
Q 1375 3413 1931 3413 
Q 2484 3413 3066 3144 
L 2925 2419 
L 2594 2419 
Q 2606 2491 2606 2553 
Q 2606 2781 2448 2942 
Q 2291 3103 1925 3103 
Q 1191 3103 1091 2591 
Q 1078 2538 1078 2444 
Q 1078 2347 1179 2237 
Q 1281 2128 1678 1997 
L 2106 1856 
Q 2550 1709 2716 1488 
Q 2831 1331 2831 1178 
Q 2831 522 2306 181 
Q 1894 -91 1262 -91 
Q 631 -91 72 184 
L 222 959 
z
" id="DejaVuSerif-Italic-73" transform="scale(0.015625)"/>
     <path d="M 856 2988 
L 350 2988 
L 416 3322 
L 922 3322 
L 1122 4353 
L 1700 4353 
L 1500 3322 
L 2581 3322 
L 2516 2988 
L 1434 2988 
L 1025 878 
Q 978 631 978 488 
Q 978 388 1000 338 
Q 1059 219 1278 219 
Q 1503 219 1633 351 
Q 1763 484 1825 781 
L 2259 781 
Q 2147 328 1884 118 
Q 1622 -91 1169 -91 
Q 672 -91 506 131 
Q 406 266 406 516 
Q 406 675 447 878 
L 856 2988 
z
" id="DejaVuSerif-Italic-74" transform="scale(0.015625)"/>
     <path d="M 678 2894 
L 4684 2894 
L 4684 2394 
L 678 2394 
L 678 2894 
z
M 678 1619 
L 4684 1619 
L 4684 1119 
L 678 1119 
L 678 1619 
z
" id="DejaVuSerif-3d" transform="scale(0.015625)"/>
     <path d="M 450 0 
L 1031 2988 
L 481 2988 
L 544 3322 
L 1669 3322 
L 1556 2731 
Q 1781 3069 2068 3241 
Q 2356 3413 2694 3413 
Q 3244 3413 3444 3097 
Q 3563 2906 3563 2588 
Q 3563 2378 3509 2113 
L 3163 331 
L 3675 331 
L 3613 0 
L 2522 0 
L 2897 1931 
Q 2959 2253 2959 2469 
Q 2959 2659 2909 2769 
Q 2803 2994 2425 2994 
Q 2025 2994 1759 2701 
Q 1494 2409 1384 1850 
L 1025 0 
L 450 0 
z
" id="DejaVuSerif-Italic-6e" transform="scale(0.015625)"/>
     <path d="M 72 6509 
L 5206 6509 
L 5694 4897 
L 5347 4897 
L 5025 5900 
Q 4975 6050 4840 6115 
Q 4706 6181 4406 6181 
L 1356 6181 
L 4931 2506 
L 4931 2344 
L 1288 -906 
L 5197 -906 
Q 5475 -903 5554 -847 
Q 5634 -791 5684 -628 
L 6003 388 
L 6347 388 
L 5694 -1738 
L 72 -1738 
L 72 -1556 
L 4138 2047 
L 72 6272 
L 72 6509 
z
" id="DejaVuSerifDisplay-2211" transform="scale(0.015625)"/>
     <path d="M 1172 4353 
Q 1197 4497 1323 4603 
Q 1450 4709 1597 4709 
Q 1741 4709 1825 4603 
Q 1888 4522 1888 4422 
Q 1888 4388 1881 4353 
Q 1850 4206 1729 4103 
Q 1609 4000 1459 4000 
Q 1313 4000 1225 4103 
Q 1163 4181 1163 4281 
Q 1163 4316 1172 4353 
z
M 1047 2988 
L 503 2988 
L 566 3322 
L 1684 3322 
L 978 -325 
Q 878 -838 515 -1130 
Q 153 -1422 -381 -1422 
Q -606 -1422 -800 -1370 
Q -994 -1319 -1169 -1216 
L -1034 -531 
L -738 -531 
Q -747 -609 -747 -675 
Q -747 -869 -669 -972 
Q -563 -1113 -306 -1113 
Q -22 -1113 150 -920 
Q 322 -728 403 -325 
L 1047 2988 
z
" id="DejaVuSerif-Italic-6a" transform="scale(0.015625)"/>
     <path d="M 909 0 
L 909 331 
L 1722 331 
L 1722 4213 
L 781 3603 
L 781 4013 
L 1919 4750 
L 2350 4750 
L 2350 331 
L 3163 331 
L 3163 0 
L 909 0 
z
" id="DejaVuSerif-31" transform="scale(0.015625)"/>
     <path d="M 409 0 
L 19 0 
L 1484 1594 
L 747 2988 
L 338 2988 
L 400 3322 
L 1244 3322 
L 1934 2028 
L 3125 3322 
L 3516 3322 
L 2078 1759 
L 2838 331 
L 3272 331 
L 3209 0 
L 2338 0 
L 1631 1325 
L 409 0 
z
" id="DejaVuSerif-Italic-78" transform="scale(0.015625)"/>
     <path d="M 3097 3866 
L 1875 3297 
L 3097 2719 
L 2859 2350 
L 1772 3028 
L 1813 1838 
L 1388 1838 
L 1428 3028 
L 341 2350 
L 103 2719 
L 1325 3291 
L 103 3866 
L 341 4238 
L 1428 3559 
L 1388 4750 
L 1813 4750 
L 1772 3559 
L 2859 4238 
L 3097 3866 
z
" id="DejaVuSerif-2a" transform="scale(0.015625)"/>
    </defs>
    <use transform="translate(0 0.217187)" xlink:href="#DejaVuSerif-Italic-63"/>
    <use transform="translate(56.005859 0.217187)" xlink:href="#DejaVuSerif-Italic-6f"/>
    <use transform="translate(116.210938 0.217187)" xlink:href="#DejaVuSerif-Italic-73"/>
    <use transform="translate(167.529297 0.217187)" xlink:href="#DejaVuSerif-Italic-74"/>
    <use transform="translate(207.714844 0.217187)" xlink:href="#DejaVuSerif-Italic-6f"/>
    <use transform="translate(286.884766 0.217187)" xlink:href="#DejaVuSerif-3d"/>
    <use transform="translate(442.638672 120.670312)scale(0.7)" xlink:href="#DejaVuSerif-Italic-6e"/>
    <use transform="translate(416.638672 0.217187)" xlink:href="#DejaVuSerifDisplay-2211"/>
    <use transform="translate(389.638672 -97.642188)scale(0.7)" xlink:href="#DejaVuSerif-Italic-6a"/>
    <use transform="translate(424.618164 -97.642188)scale(0.7)" xlink:href="#DejaVuSerif-3d"/>
    <use transform="translate(496.545898 -97.642188)scale(0.7)" xlink:href="#DejaVuSerif-31"/>
    <use transform="translate(541.082031 0.217187)" xlink:href="#DejaVuSerif-Italic-78"/>
    <use transform="translate(597.478516 -15.354688)scale(0.7)" xlink:href="#DejaVuSerif-Italic-6a"/>
    <use transform="translate(640.742773 0.217187)" xlink:href="#DejaVuSerif-2a"/>
    <use transform="translate(709.707617 0.217187)" xlink:href="#DejaVuSerif-Italic-63"/>
    <use transform="translate(765.713477 -15.354688)scale(0.7)" xlink:href="#DejaVuSerif-Italic-6a"/>
   </g>
  </g>
 </g>
</svg>
