<?xml version="1.0" encoding="utf-8" standalone="no"?>
<!DOCTYPE svg PUBLIC "-//W3C//DTD SVG 1.1//EN"
  "http://www.w3.org/Graphics/SVG/1.1/DTD/svg11.dtd">
<svg height="17pt" version="1.1" viewBox="0 0 221 17" width="221pt" xmlns="http://www.w3.org/2000/svg" xmlns:xlink="http://www.w3.org/1999/xlink">
 <metadata>
  <rdf:RDF xmlns:cc="http://creativecommons.org/ns#" xmlns:dc="http://purl.org/dc/elements/1.1/" xmlns:rdf="http://www.w3.org/1999/02/22-rdf-syntax-ns#">
   <cc:Work>
    <dc:type rdf:resource="http://purl.org/dc/dcmitype/StillImage"/>
    <dc:date>2021-04-12T16:04:41.066646</dc:date>
    <dc:format>image/svg+xml</dc:format>
    <dc:creator>
     <cc:Agent>
      <dc:title>Matplotlib v3.4.1, https://matplotlib.org/</dc:title>
     </cc:Agent>
    </dc:creator>
   </cc:Work>
  </rdf:RDF>
 </metadata>
 <defs>
  <style type="text/css">*{stroke-linecap:butt;stroke-linejoin:round;}</style>
 </defs>
 <g id="figure_1">
  <g id="patch_1">
   <path d="M 0 17 
L 221 17 
L 221 0 
L 0 0 
z
" style="fill:#ffffff;"/>
  </g>
  <g id="text_1">
   <!-- $ f(x_{1},...,x_{n})=f(0,...,0)=0 $ -->
   <g transform="translate(0 13)scale(0.16 -0.16)">
    <defs>
     <path d="M 3191 4078 
L 2888 4078 
Q 2900 4144 2900 4203 
Q 2900 4347 2825 4434 
Q 2719 4556 2472 4556 
Q 2150 4556 1984 4379 
Q 1819 4203 1731 3750 
L 1647 3322 
L 2575 3322 
L 2509 2988 
L 1581 2988 
L 963 -206 
Q 853 -763 509 -1047 
Q 166 -1331 -394 -1331 
L -356 -1025 
Q -28 -1025 131 -850 
Q 297 -663 388 -206 
L 1006 2988 
L 456 2988 
L 522 3322 
L 1072 3322 
L 1153 3738 
Q 1263 4297 1606 4578 
Q 1950 4863 2509 4863 
Q 2719 4863 2920 4825 
Q 3122 4788 3316 4709 
L 3191 4078 
z
" id="DejaVuSerif-Italic-66" transform="scale(0.015625)"/>
     <path d="M 2041 -997 
Q 1281 -656 893 83 
Q 506 822 506 1931 
Q 506 3044 893 3783 
Q 1281 4522 2041 4863 
L 2041 4556 
Q 1559 4225 1350 3623 
Q 1141 3022 1141 1931 
Q 1141 844 1350 242 
Q 1559 -359 2041 -691 
L 2041 -997 
z
" id="DejaVuSerif-28" transform="scale(0.015625)"/>
     <path d="M 409 0 
L 19 0 
L 1484 1594 
L 747 2988 
L 338 2988 
L 400 3322 
L 1244 3322 
L 1934 2028 
L 3125 3322 
L 3516 3322 
L 2078 1759 
L 2838 331 
L 3272 331 
L 3209 0 
L 2338 0 
L 1631 1325 
L 409 0 
z
" id="DejaVuSerif-Italic-78" transform="scale(0.015625)"/>
     <path d="M 909 0 
L 909 331 
L 1722 331 
L 1722 4213 
L 781 3603 
L 781 4013 
L 1919 4750 
L 2350 4750 
L 2350 331 
L 3163 331 
L 3163 0 
L 909 0 
z
" id="DejaVuSerif-31" transform="scale(0.015625)"/>
     <path d="M 231 -622 
Q 525 -406 662 -114 
Q 800 178 800 594 
L 800 709 
L 1416 709 
Q 1391 175 1164 -208 
Q 938 -591 481 -872 
L 231 -622 
z
" id="DejaVuSerif-2c" transform="scale(0.015625)"/>
     <path d="M 603 325 
Q 603 500 722 622 
Q 841 744 1019 744 
Q 1191 744 1312 622 
Q 1434 500 1434 325 
Q 1434 153 1312 31 
Q 1191 -91 1019 -91 
Q 841 -91 722 29 
Q 603 150 603 325 
z
" id="DejaVuSerif-2e" transform="scale(0.015625)"/>
     <path d="M 450 0 
L 1031 2988 
L 481 2988 
L 544 3322 
L 1669 3322 
L 1556 2731 
Q 1781 3069 2068 3241 
Q 2356 3413 2694 3413 
Q 3244 3413 3444 3097 
Q 3563 2906 3563 2588 
Q 3563 2378 3509 2113 
L 3163 331 
L 3675 331 
L 3613 0 
L 2522 0 
L 2897 1931 
Q 2959 2253 2959 2469 
Q 2959 2659 2909 2769 
Q 2803 2994 2425 2994 
Q 2025 2994 1759 2701 
Q 1494 2409 1384 1850 
L 1025 0 
L 450 0 
z
" id="DejaVuSerif-Italic-6e" transform="scale(0.015625)"/>
     <path d="M 453 -997 
L 453 -691 
Q 934 -359 1145 242 
Q 1356 844 1356 1931 
Q 1356 3022 1145 3623 
Q 934 4225 453 4556 
L 453 4863 
Q 1216 4522 1603 3783 
Q 1991 3044 1991 1931 
Q 1991 822 1603 83 
Q 1216 -656 453 -997 
z
" id="DejaVuSerif-29" transform="scale(0.015625)"/>
     <path d="M 678 2894 
L 4684 2894 
L 4684 2394 
L 678 2394 
L 678 2894 
z
M 678 1619 
L 4684 1619 
L 4684 1119 
L 678 1119 
L 678 1619 
z
" id="DejaVuSerif-3d" transform="scale(0.015625)"/>
     <path d="M 2034 219 
Q 2513 219 2750 744 
Q 2988 1269 2988 2328 
Q 2988 3391 2750 3916 
Q 2513 4441 2034 4441 
Q 1556 4441 1318 3916 
Q 1081 3391 1081 2328 
Q 1081 1269 1318 744 
Q 1556 219 2034 219 
z
M 2034 -91 
Q 1275 -91 848 546 
Q 422 1184 422 2328 
Q 422 3475 848 4112 
Q 1275 4750 2034 4750 
Q 2797 4750 3222 4112 
Q 3647 3475 3647 2328 
Q 3647 1184 3222 546 
Q 2797 -91 2034 -91 
z
" id="DejaVuSerif-30" transform="scale(0.015625)"/>
    </defs>
    <use transform="translate(0 0.015625)" xlink:href="#DejaVuSerif-Italic-66"/>
    <use transform="translate(37.011719 0.015625)" xlink:href="#DejaVuSerif-28"/>
    <use transform="translate(76.025391 0.015625)" xlink:href="#DejaVuSerif-Italic-78"/>
    <use transform="translate(132.421875 -15.55625)scale(0.7)" xlink:href="#DejaVuSerif-31"/>
    <use transform="translate(179.55332 0.015625)" xlink:href="#DejaVuSerif-2c"/>
    <use transform="translate(230.305273 0.015625)" xlink:href="#DejaVuSerif-2e"/>
    <use transform="translate(281.057227 0.015625)" xlink:href="#DejaVuSerif-2e"/>
    <use transform="translate(331.80918 0.015625)" xlink:href="#DejaVuSerif-2e"/>
    <use transform="translate(382.561133 0.015625)" xlink:href="#DejaVuSerif-2c"/>
    <use transform="translate(433.313086 0.015625)" xlink:href="#DejaVuSerif-Italic-78"/>
    <use transform="translate(489.70957 -15.55625)scale(0.7)" xlink:href="#DejaVuSerif-Italic-6e"/>
    <use transform="translate(537.387891 0.015625)" xlink:href="#DejaVuSerif-29"/>
    <use transform="translate(595.366406 0.015625)" xlink:href="#DejaVuSerif-3d"/>
    <use transform="translate(698.120312 0.015625)" xlink:href="#DejaVuSerif-Italic-66"/>
    <use transform="translate(735.132031 0.015625)" xlink:href="#DejaVuSerif-28"/>
    <use transform="translate(774.145703 0.015625)" xlink:href="#DejaVuSerif-30"/>
    <use transform="translate(837.76875 0.015625)" xlink:href="#DejaVuSerif-2c"/>
    <use transform="translate(888.520703 0.015625)" xlink:href="#DejaVuSerif-2e"/>
    <use transform="translate(939.272656 0.015625)" xlink:href="#DejaVuSerif-2e"/>
    <use transform="translate(990.024609 0.015625)" xlink:href="#DejaVuSerif-2e"/>
    <use transform="translate(1040.776562 0.015625)" xlink:href="#DejaVuSerif-2c"/>
    <use transform="translate(1091.528516 0.015625)" xlink:href="#DejaVuSerif-30"/>
    <use transform="translate(1155.151562 0.015625)" xlink:href="#DejaVuSerif-29"/>
    <use transform="translate(1213.130078 0.015625)" xlink:href="#DejaVuSerif-3d"/>
    <use transform="translate(1315.883984 0.015625)" xlink:href="#DejaVuSerif-30"/>
   </g>
  </g>
 </g>
</svg>
